<svg width="44" height="54" viewBox="0 0 44 54" fill="none" xmlns="http://www.w3.org/2000/svg">
<g filter="url(#filter0_d)">
<path d="M22.1406 24.5078H16.5625L14.3828 37H7.51562L13.4453 2.875L24.7422 2.89844C28.5234 2.89844 31.4297 3.78906 33.4609 5.57031C35.5078 7.35156 36.4141 9.82812 36.1797 13C35.8516 17.6875 33.3516 20.9453 28.6797 22.7734L33.4844 36.625V37H26.1719L22.1406 24.5078ZM17.5469 18.8125L22.6562 18.8594C24.4688 18.8281 25.9609 18.3438 27.1328 17.4062C28.3203 16.4531 29.0312 15.1641 29.2656 13.5391C29.4844 12.0234 29.2422 10.8359 28.5391 9.97656C27.8359 9.11719 26.7188 8.65625 25.1875 8.59375L19.3281 8.57031L17.5469 18.8125Z" fill="#102A42"/>
<path d="M22.1406 24.5078L24.044 23.8936L23.5968 22.5078H22.1406V24.5078ZM16.5625 24.5078V22.5078H14.8813L14.5923 24.164L16.5625 24.5078ZM14.3828 37V39H16.0641L16.353 37.3438L14.3828 37ZM7.51562 37L5.54515 36.6576L5.13813 39H7.51562V37ZM13.4453 2.875L13.4495 0.875004L11.7635 0.871506L11.4748 2.5326L13.4453 2.875ZM24.7422 2.89844L24.738 4.89844H24.7422V2.89844ZM33.4609 5.57031L32.1423 7.07404L32.148 7.07903L33.4609 5.57031ZM36.1797 13L34.1851 12.8526L34.1846 12.8603L36.1797 13ZM28.6797 22.7734L27.9509 20.911L26.1598 21.6118L26.7901 23.4289L28.6797 22.7734ZM33.4844 36.625H35.4844V36.288L35.3739 35.9696L33.4844 36.625ZM33.4844 37V39H35.4844V37H33.4844ZM26.1719 37L24.2685 37.6142L24.7157 39H26.1719V37ZM17.5469 18.8125L15.5765 18.4698L15.1728 20.7908L17.5285 20.8124L17.5469 18.8125ZM22.6562 18.8594L22.6379 20.8593L22.6643 20.8595L22.6907 20.8591L22.6562 18.8594ZM27.1328 17.4062L28.3822 18.968L28.3847 18.966L27.1328 17.4062ZM29.2656 13.5391L27.2861 13.2534L27.2861 13.2536L29.2656 13.5391ZM25.1875 8.59375L25.2691 6.59541L25.2323 6.59391L25.1955 6.59377L25.1875 8.59375ZM19.3281 8.57031L19.3361 6.57033L17.6471 6.56357L17.3577 8.22763L19.3281 8.57031ZM22.1406 22.5078H16.5625V26.5078H22.1406V22.5078ZM14.5923 24.164L12.4126 36.6562L16.353 37.3438L18.5327 24.8516L14.5923 24.164ZM14.3828 35H7.51562V39H14.3828V35ZM9.4861 37.3424L15.4158 3.2174L11.4748 2.5326L5.54515 36.6576L9.4861 37.3424ZM13.4412 4.875L24.738 4.89843L24.7463 0.898442L13.4495 0.875004L13.4412 4.875ZM24.7422 4.89844C28.2313 4.89844 30.5987 5.72042 32.1423 7.07403L34.7796 4.06659C32.2607 1.85771 28.8156 0.898438 24.7422 0.898438V4.89844ZM32.148 7.07903C33.6337 8.37194 34.3821 10.1867 34.1851 12.8526L38.1742 13.1474C38.446 9.46951 37.3819 6.33118 34.7739 4.0616L32.148 7.07903ZM34.1846 12.8603C34.0439 14.8706 33.4498 16.4672 32.4719 17.7414C31.4883 19.0232 30.0226 20.1003 27.9509 20.911L29.4085 24.6359C32.0086 23.6185 34.1289 22.1525 35.6453 20.1766C37.1674 18.193 37.9874 15.8169 38.1748 13.1397L34.1846 12.8603ZM26.7901 23.4289L31.5948 37.2804L35.3739 35.9696L30.5692 22.118L26.7901 23.4289ZM31.4844 36.625V37H35.4844V36.625H31.4844ZM33.4844 35H26.1719V39H33.4844V35ZM28.0752 36.3858L24.044 23.8936L20.2373 25.122L24.2685 37.6142L28.0752 36.3858ZM17.5285 20.8124L22.6379 20.8593L22.6746 16.8595L17.5652 16.8126L17.5285 20.8124ZM22.6907 20.8591C24.8508 20.8218 26.7976 20.2357 28.3822 18.968L25.8834 15.8445C25.1243 16.4518 24.0867 16.8344 22.6218 16.8597L22.6907 20.8591ZM28.3847 18.966C30 17.6695 30.9446 15.9083 31.2451 13.8246L27.2861 13.2536C27.1179 14.4199 26.6406 15.2367 25.8809 15.8465L28.3847 18.966ZM31.2451 13.8248C31.5125 11.9719 31.264 10.1486 30.087 8.71009L26.9911 11.243C27.2204 11.5232 27.4562 12.075 27.2861 13.2534L31.2451 13.8248ZM30.087 8.71009C28.9001 7.25952 27.1455 6.672 25.2691 6.59541L25.1059 10.5921C26.292 10.6405 26.7717 10.9749 26.9911 11.243L30.087 8.71009ZM25.1955 6.59377L19.3361 6.57033L19.3201 10.5703L25.1795 10.5937L25.1955 6.59377ZM17.3577 8.22763L15.5765 18.4698L19.5173 19.1552L21.2985 8.91299L17.3577 8.22763Z" fill="#102A42"/>
</g>
<defs>
<filter id="filter0_d" x="0.138126" y="0.871506" width="43.0774" height="53.1285" filterUnits="userSpaceOnUse" color-interpolation-filters="sRGB">
<feFlood flood-opacity="0" result="BackgroundImageFix"/>
<feColorMatrix in="SourceAlpha" type="matrix" values="0 0 0 0 0 0 0 0 0 0 0 0 0 0 0 0 0 0 127 0"/>
<feOffset dy="10"/>
<feGaussianBlur stdDeviation="2.5"/>
<feColorMatrix type="matrix" values="0 0 0 0 0 0 0 0 0 0 0 0 0 0 0 0 0 0 0.25 0"/>
<feBlend mode="normal" in2="BackgroundImageFix" result="effect1_dropShadow"/>
<feBlend mode="normal" in="SourceGraphic" in2="effect1_dropShadow" result="shape"/>
</filter>
</defs>
</svg>
